<mxfile host="app.diagrams.net" modified="2024-02-01T09:35:44.086Z" agent="Mozilla/5.0 (Windows NT 10.0; Win64; x64) AppleWebKit/537.36 (KHTML, like Gecko) Chrome/121.0.0.0 Safari/537.36" etag="BdXJWPGxod11JCUGvIv0" version="23.1.0" type="device">
  <diagram id="R2lEEEUBdFMjLlhIrx00" name="Page-1">
    <mxGraphModel dx="1120" dy="468" grid="1" gridSize="10" guides="1" tooltips="1" connect="1" arrows="1" fold="1" page="1" pageScale="1" pageWidth="850" pageHeight="1100" math="0" shadow="0" extFonts="Permanent Marker^https://fonts.googleapis.com/css?family=Permanent+Marker">
      <root>
        <mxCell id="0" />
        <mxCell id="1" parent="0" />
        <mxCell id="CNnHiovI_J0BDxI2pHjG-5" value="" style="edgeStyle=orthogonalEdgeStyle;rounded=0;orthogonalLoop=1;jettySize=auto;html=1;" edge="1" parent="1" source="CNnHiovI_J0BDxI2pHjG-1">
          <mxGeometry relative="1" as="geometry">
            <mxPoint x="420" y="230" as="targetPoint" />
          </mxGeometry>
        </mxCell>
        <mxCell id="CNnHiovI_J0BDxI2pHjG-1" value="Check User level and prtmission" style="rounded=1;whiteSpace=wrap;html=1;" vertex="1" parent="1">
          <mxGeometry x="350" y="140" width="140" height="60" as="geometry" />
        </mxCell>
        <mxCell id="CNnHiovI_J0BDxI2pHjG-3" value="" style="edgeStyle=orthogonalEdgeStyle;rounded=0;orthogonalLoop=1;jettySize=auto;html=1;" edge="1" parent="1" source="CNnHiovI_J0BDxI2pHjG-2" target="CNnHiovI_J0BDxI2pHjG-1">
          <mxGeometry relative="1" as="geometry" />
        </mxCell>
        <mxCell id="CNnHiovI_J0BDxI2pHjG-2" value="Login to the school management system" style="rounded=1;whiteSpace=wrap;html=1;" vertex="1" parent="1">
          <mxGeometry x="350" y="40" width="140" height="60" as="geometry" />
        </mxCell>
        <mxCell id="CNnHiovI_J0BDxI2pHjG-6" value="" style="endArrow=none;html=1;rounded=0;" edge="1" parent="1">
          <mxGeometry width="50" height="50" relative="1" as="geometry">
            <mxPoint x="100" y="230" as="sourcePoint" />
            <mxPoint x="710" y="230" as="targetPoint" />
          </mxGeometry>
        </mxCell>
        <mxCell id="CNnHiovI_J0BDxI2pHjG-7" value="" style="endArrow=classic;html=1;rounded=0;" edge="1" parent="1">
          <mxGeometry width="50" height="50" relative="1" as="geometry">
            <mxPoint x="710" y="230" as="sourcePoint" />
            <mxPoint x="710" y="280" as="targetPoint" />
          </mxGeometry>
        </mxCell>
        <mxCell id="CNnHiovI_J0BDxI2pHjG-8" value="" style="endArrow=classic;html=1;rounded=0;" edge="1" parent="1">
          <mxGeometry width="50" height="50" relative="1" as="geometry">
            <mxPoint x="570" y="230" as="sourcePoint" />
            <mxPoint x="570" y="280" as="targetPoint" />
          </mxGeometry>
        </mxCell>
        <mxCell id="CNnHiovI_J0BDxI2pHjG-9" value="" style="endArrow=classic;html=1;rounded=0;" edge="1" parent="1">
          <mxGeometry width="50" height="50" relative="1" as="geometry">
            <mxPoint x="420" y="230" as="sourcePoint" />
            <mxPoint x="420" y="280" as="targetPoint" />
          </mxGeometry>
        </mxCell>
        <mxCell id="CNnHiovI_J0BDxI2pHjG-10" value="" style="endArrow=classic;html=1;rounded=0;" edge="1" parent="1">
          <mxGeometry width="50" height="50" relative="1" as="geometry">
            <mxPoint x="230" y="230" as="sourcePoint" />
            <mxPoint x="230" y="280" as="targetPoint" />
          </mxGeometry>
        </mxCell>
        <mxCell id="CNnHiovI_J0BDxI2pHjG-11" value="" style="endArrow=classic;html=1;rounded=0;" edge="1" parent="1">
          <mxGeometry width="50" height="50" relative="1" as="geometry">
            <mxPoint x="100" y="230" as="sourcePoint" />
            <mxPoint x="100" y="280" as="targetPoint" />
          </mxGeometry>
        </mxCell>
        <mxCell id="CNnHiovI_J0BDxI2pHjG-22" value="" style="edgeStyle=orthogonalEdgeStyle;rounded=0;orthogonalLoop=1;jettySize=auto;html=1;" edge="1" parent="1" source="CNnHiovI_J0BDxI2pHjG-12" target="CNnHiovI_J0BDxI2pHjG-21">
          <mxGeometry relative="1" as="geometry" />
        </mxCell>
        <mxCell id="CNnHiovI_J0BDxI2pHjG-12" value="Check permission" style="rhombus;whiteSpace=wrap;html=1;" vertex="1" parent="1">
          <mxGeometry x="370" y="280" width="100" height="80" as="geometry" />
        </mxCell>
        <mxCell id="CNnHiovI_J0BDxI2pHjG-24" value="" style="edgeStyle=orthogonalEdgeStyle;rounded=0;orthogonalLoop=1;jettySize=auto;html=1;" edge="1" parent="1" source="CNnHiovI_J0BDxI2pHjG-13" target="CNnHiovI_J0BDxI2pHjG-23">
          <mxGeometry relative="1" as="geometry" />
        </mxCell>
        <mxCell id="CNnHiovI_J0BDxI2pHjG-13" value="Check permission" style="rhombus;whiteSpace=wrap;html=1;" vertex="1" parent="1">
          <mxGeometry x="520" y="280" width="100" height="80" as="geometry" />
        </mxCell>
        <mxCell id="CNnHiovI_J0BDxI2pHjG-20" value="" style="edgeStyle=orthogonalEdgeStyle;rounded=0;orthogonalLoop=1;jettySize=auto;html=1;" edge="1" parent="1" source="CNnHiovI_J0BDxI2pHjG-14" target="CNnHiovI_J0BDxI2pHjG-19">
          <mxGeometry relative="1" as="geometry" />
        </mxCell>
        <mxCell id="CNnHiovI_J0BDxI2pHjG-14" value="Check permission" style="rhombus;whiteSpace=wrap;html=1;" vertex="1" parent="1">
          <mxGeometry x="180" y="280" width="100" height="80" as="geometry" />
        </mxCell>
        <mxCell id="CNnHiovI_J0BDxI2pHjG-18" value="" style="edgeStyle=orthogonalEdgeStyle;rounded=0;orthogonalLoop=1;jettySize=auto;html=1;" edge="1" parent="1" source="CNnHiovI_J0BDxI2pHjG-15" target="CNnHiovI_J0BDxI2pHjG-17">
          <mxGeometry relative="1" as="geometry" />
        </mxCell>
        <mxCell id="CNnHiovI_J0BDxI2pHjG-15" value="Check permission" style="rhombus;whiteSpace=wrap;html=1;" vertex="1" parent="1">
          <mxGeometry x="50" y="280" width="100" height="80" as="geometry" />
        </mxCell>
        <mxCell id="CNnHiovI_J0BDxI2pHjG-26" value="" style="edgeStyle=orthogonalEdgeStyle;rounded=0;orthogonalLoop=1;jettySize=auto;html=1;" edge="1" parent="1" source="CNnHiovI_J0BDxI2pHjG-16" target="CNnHiovI_J0BDxI2pHjG-25">
          <mxGeometry relative="1" as="geometry" />
        </mxCell>
        <mxCell id="CNnHiovI_J0BDxI2pHjG-16" value="Check permission" style="rhombus;whiteSpace=wrap;html=1;" vertex="1" parent="1">
          <mxGeometry x="660" y="280" width="100" height="80" as="geometry" />
        </mxCell>
        <mxCell id="CNnHiovI_J0BDxI2pHjG-28" value="" style="edgeStyle=orthogonalEdgeStyle;rounded=0;orthogonalLoop=1;jettySize=auto;html=1;" edge="1" parent="1" source="CNnHiovI_J0BDxI2pHjG-17">
          <mxGeometry relative="1" as="geometry">
            <mxPoint x="100" y="520" as="targetPoint" />
          </mxGeometry>
        </mxCell>
        <mxCell id="CNnHiovI_J0BDxI2pHjG-17" value="Manage Teacher" style="rounded=1;whiteSpace=wrap;html=1;" vertex="1" parent="1">
          <mxGeometry x="40" y="410" width="120" height="50" as="geometry" />
        </mxCell>
        <mxCell id="CNnHiovI_J0BDxI2pHjG-30" value="" style="edgeStyle=orthogonalEdgeStyle;rounded=0;orthogonalLoop=1;jettySize=auto;html=1;" edge="1" parent="1" source="CNnHiovI_J0BDxI2pHjG-19">
          <mxGeometry relative="1" as="geometry">
            <mxPoint x="230" y="520" as="targetPoint" />
          </mxGeometry>
        </mxCell>
        <mxCell id="CNnHiovI_J0BDxI2pHjG-19" value="Manage Course" style="rounded=1;whiteSpace=wrap;html=1;" vertex="1" parent="1">
          <mxGeometry x="175" y="410" width="110" height="50" as="geometry" />
        </mxCell>
        <mxCell id="CNnHiovI_J0BDxI2pHjG-32" value="" style="edgeStyle=orthogonalEdgeStyle;rounded=0;orthogonalLoop=1;jettySize=auto;html=1;" edge="1" parent="1" source="CNnHiovI_J0BDxI2pHjG-21">
          <mxGeometry relative="1" as="geometry">
            <mxPoint x="420" y="520" as="targetPoint" />
          </mxGeometry>
        </mxCell>
        <mxCell id="CNnHiovI_J0BDxI2pHjG-21" value="Manage Registration" style="rounded=1;whiteSpace=wrap;html=1;" vertex="1" parent="1">
          <mxGeometry x="360" y="405" width="120" height="50" as="geometry" />
        </mxCell>
        <mxCell id="CNnHiovI_J0BDxI2pHjG-34" value="" style="edgeStyle=orthogonalEdgeStyle;rounded=0;orthogonalLoop=1;jettySize=auto;html=1;" edge="1" parent="1" source="CNnHiovI_J0BDxI2pHjG-23">
          <mxGeometry relative="1" as="geometry">
            <mxPoint x="570" y="520" as="targetPoint" />
          </mxGeometry>
        </mxCell>
        <mxCell id="CNnHiovI_J0BDxI2pHjG-23" value="Manage School" style="rounded=1;whiteSpace=wrap;html=1;" vertex="1" parent="1">
          <mxGeometry x="510" y="405" width="120" height="50" as="geometry" />
        </mxCell>
        <mxCell id="CNnHiovI_J0BDxI2pHjG-36" value="" style="edgeStyle=orthogonalEdgeStyle;rounded=0;orthogonalLoop=1;jettySize=auto;html=1;" edge="1" parent="1" source="CNnHiovI_J0BDxI2pHjG-25">
          <mxGeometry relative="1" as="geometry">
            <mxPoint x="710" y="520" as="targetPoint" />
          </mxGeometry>
        </mxCell>
        <mxCell id="CNnHiovI_J0BDxI2pHjG-25" value="Manage Student" style="rounded=1;whiteSpace=wrap;html=1;" vertex="1" parent="1">
          <mxGeometry x="655" y="405" width="110" height="50" as="geometry" />
        </mxCell>
        <mxCell id="CNnHiovI_J0BDxI2pHjG-37" value="" style="endArrow=none;html=1;rounded=0;" edge="1" parent="1">
          <mxGeometry width="50" height="50" relative="1" as="geometry">
            <mxPoint x="100" y="520" as="sourcePoint" />
            <mxPoint x="710" y="520" as="targetPoint" />
          </mxGeometry>
        </mxCell>
        <mxCell id="CNnHiovI_J0BDxI2pHjG-38" value="" style="endArrow=classic;html=1;rounded=0;" edge="1" parent="1">
          <mxGeometry width="50" height="50" relative="1" as="geometry">
            <mxPoint x="420" y="520" as="sourcePoint" />
            <mxPoint x="420" y="570" as="targetPoint" />
          </mxGeometry>
        </mxCell>
        <mxCell id="CNnHiovI_J0BDxI2pHjG-41" value="" style="edgeStyle=orthogonalEdgeStyle;rounded=0;orthogonalLoop=1;jettySize=auto;html=1;" edge="1" parent="1" source="CNnHiovI_J0BDxI2pHjG-39">
          <mxGeometry relative="1" as="geometry">
            <mxPoint x="560" y="595" as="targetPoint" />
          </mxGeometry>
        </mxCell>
        <mxCell id="CNnHiovI_J0BDxI2pHjG-39" value="Logout from the system" style="rounded=1;whiteSpace=wrap;html=1;" vertex="1" parent="1">
          <mxGeometry x="360" y="570" width="120" height="50" as="geometry" />
        </mxCell>
        <mxCell id="CNnHiovI_J0BDxI2pHjG-42" value="&lt;b&gt;End&lt;/b&gt;" style="text;html=1;align=center;verticalAlign=middle;resizable=0;points=[];autosize=1;strokeColor=none;fillColor=none;" vertex="1" parent="1">
          <mxGeometry x="560" y="580" width="50" height="30" as="geometry" />
        </mxCell>
      </root>
    </mxGraphModel>
  </diagram>
</mxfile>
